<mxfile host="app.diagrams.net" modified="2021-02-16T06:55:50.481Z" agent="5.0 (Windows)" etag="FB4K3oXqZl-ypfnJBhli" version="14.3.1" type="github">
  <diagram id="oZApB-7Yuo-PYpwVCeIF" name="Page-1">
    <mxGraphModel dx="1646" dy="917" grid="1" gridSize="10" guides="1" tooltips="1" connect="1" arrows="1" fold="1" page="1" pageScale="1" pageWidth="850" pageHeight="1100" math="0" shadow="0">
      <root>
        <mxCell id="0" />
        <mxCell id="1" parent="0" />
        <mxCell id="8GT5cQAfXwp6U4HI82hQ-9" style="edgeStyle=orthogonalEdgeStyle;rounded=0;orthogonalLoop=1;jettySize=auto;html=1;entryX=0.5;entryY=0;entryDx=0;entryDy=0;" parent="1" source="8GT5cQAfXwp6U4HI82hQ-1" target="8GT5cQAfXwp6U4HI82hQ-7" edge="1">
          <mxGeometry relative="1" as="geometry" />
        </mxCell>
        <mxCell id="8GT5cQAfXwp6U4HI82hQ-1" value="MAIN" style="rounded=1;whiteSpace=wrap;html=1;" parent="1" vertex="1">
          <mxGeometry x="110" y="110" width="120" height="30" as="geometry" />
        </mxCell>
        <mxCell id="8GT5cQAfXwp6U4HI82hQ-2" value="&lt;div&gt;Nivel_PROM &amp;lt;- 0&lt;/div&gt;&lt;div&gt;NIVEL &amp;lt;-0&lt;/div&gt;&lt;div&gt;VOLUMEN &amp;lt;- 0&lt;/div&gt;&lt;div&gt;CONTAR_DELAY &amp;lt;- 0&lt;/div&gt;&lt;div&gt;COMPELTADO &amp;lt;- 0&lt;/div&gt;&lt;div&gt;estado &amp;lt;- 1&lt;/div&gt;" style="rounded=0;whiteSpace=wrap;html=1;" parent="1" vertex="1">
          <mxGeometry x="110" y="170" width="120" height="110" as="geometry" />
        </mxCell>
        <mxCell id="8GT5cQAfXwp6U4HI82hQ-14" value="" style="edgeStyle=orthogonalEdgeStyle;rounded=0;orthogonalLoop=1;jettySize=auto;html=1;" parent="1" source="8GT5cQAfXwp6U4HI82hQ-3" target="8GT5cQAfXwp6U4HI82hQ-13" edge="1">
          <mxGeometry relative="1" as="geometry" />
        </mxCell>
        <mxCell id="8GT5cQAfXwp6U4HI82hQ-3" value="&lt;div&gt;ATD0CTL3 &amp;lt;- $30&lt;/div&gt;&lt;div&gt;ATD0CTL4 &amp;lt;- $01&lt;/div&gt;&lt;div&gt;ATD0CTL5 &amp;lt;- $80&lt;/div&gt;&lt;div&gt;CRGINT.7 &amp;lt;- 1&lt;br&gt;&lt;/div&gt;&lt;div&gt;RTICTL &amp;lt;- $49&lt;/div&gt;&lt;div&gt;DDRB.0 &amp;lt;- 1&lt;/div&gt;&lt;div&gt;DDRJ.1 &amp;lt;- 1&lt;/div&gt;&lt;div&gt;PTJ.1 &amp;lt;- 0&lt;/div&gt;&lt;div&gt;J &amp;lt;- encabezado&lt;/div&gt;&lt;div&gt;Puntero &amp;lt;- J&lt;/div&gt;&lt;div&gt;SC1BDH &amp;lt;- 39&lt;/div&gt;&lt;div&gt;SC1CR1 &amp;lt;- 0&lt;/div&gt;&lt;div&gt;SC1CR2 &amp;lt;- $88&lt;/div&gt;&lt;div&gt;SP &amp;lt;- 4000&lt;/div&gt;&lt;div&gt;&amp;nbsp;I &amp;lt;- 0&lt;br&gt;&lt;/div&gt;" style="rounded=0;whiteSpace=wrap;html=1;" parent="1" vertex="1">
          <mxGeometry x="110" y="510" width="120" height="230" as="geometry" />
        </mxCell>
        <mxCell id="8GT5cQAfXwp6U4HI82hQ-4" value="&lt;div&gt;ATD0CTL2 &amp;lt;- $C2&lt;/div&gt;R1 &amp;lt;- 160" style="rounded=0;whiteSpace=wrap;html=1;" parent="1" vertex="1">
          <mxGeometry x="110" y="300" width="120" height="40" as="geometry" />
        </mxCell>
        <mxCell id="8GT5cQAfXwp6U4HI82hQ-8" style="edgeStyle=orthogonalEdgeStyle;rounded=0;orthogonalLoop=1;jettySize=auto;html=1;entryX=0;entryY=0.5;entryDx=0;entryDy=0;" parent="1" source="8GT5cQAfXwp6U4HI82hQ-5" target="8GT5cQAfXwp6U4HI82hQ-7" edge="1">
          <mxGeometry relative="1" as="geometry">
            <Array as="points">
              <mxPoint x="90" y="470" />
              <mxPoint x="90" y="375" />
            </Array>
          </mxGeometry>
        </mxCell>
        <mxCell id="8GT5cQAfXwp6U4HI82hQ-11" value="" style="edgeStyle=orthogonalEdgeStyle;rounded=0;orthogonalLoop=1;jettySize=auto;html=1;" parent="1" source="8GT5cQAfXwp6U4HI82hQ-5" target="8GT5cQAfXwp6U4HI82hQ-3" edge="1">
          <mxGeometry relative="1" as="geometry" />
        </mxCell>
        <mxCell id="8GT5cQAfXwp6U4HI82hQ-5" value="R1 = 0" style="shape=hexagon;perimeter=hexagonPerimeter2;whiteSpace=wrap;html=1;fixedSize=1;" parent="1" vertex="1">
          <mxGeometry x="110" y="455" width="120" height="30" as="geometry" />
        </mxCell>
        <mxCell id="8GT5cQAfXwp6U4HI82hQ-10" style="edgeStyle=orthogonalEdgeStyle;rounded=0;orthogonalLoop=1;jettySize=auto;html=1;exitX=0.5;exitY=1;exitDx=0;exitDy=0;" parent="1" source="8GT5cQAfXwp6U4HI82hQ-7" target="8GT5cQAfXwp6U4HI82hQ-5" edge="1">
          <mxGeometry relative="1" as="geometry" />
        </mxCell>
        <mxCell id="8GT5cQAfXwp6U4HI82hQ-7" value="" style="ellipse;whiteSpace=wrap;html=1;aspect=fixed;" parent="1" vertex="1">
          <mxGeometry x="155" y="360" width="30" height="30" as="geometry" />
        </mxCell>
        <mxCell id="8GT5cQAfXwp6U4HI82hQ-6" value="R1 &amp;lt;- R1 -1" style="rounded=0;whiteSpace=wrap;html=1;" parent="1" vertex="1">
          <mxGeometry x="110" y="405" width="120" height="30" as="geometry" />
        </mxCell>
        <mxCell id="8GT5cQAfXwp6U4HI82hQ-12" value="No" style="text;html=1;align=center;verticalAlign=middle;resizable=0;points=[];autosize=1;" parent="1" vertex="1">
          <mxGeometry x="85" y="450" width="30" height="20" as="geometry" />
        </mxCell>
        <mxCell id="8GT5cQAfXwp6U4HI82hQ-13" value="I" style="ellipse;whiteSpace=wrap;html=1;aspect=fixed;" parent="1" vertex="1">
          <mxGeometry x="155" y="770" width="30" height="30" as="geometry" />
        </mxCell>
        <mxCell id="8GT5cQAfXwp6U4HI82hQ-18" value="" style="edgeStyle=orthogonalEdgeStyle;rounded=0;orthogonalLoop=1;jettySize=auto;html=1;" parent="1" source="8GT5cQAfXwp6U4HI82hQ-15" target="8GT5cQAfXwp6U4HI82hQ-17" edge="1">
          <mxGeometry relative="1" as="geometry" />
        </mxCell>
        <mxCell id="8GT5cQAfXwp6U4HI82hQ-15" value="I" style="ellipse;whiteSpace=wrap;html=1;aspect=fixed;" parent="1" vertex="1">
          <mxGeometry x="350" y="110" width="30" height="30" as="geometry" />
        </mxCell>
        <mxCell id="8GT5cQAfXwp6U4HI82hQ-25" value="" style="edgeStyle=orthogonalEdgeStyle;rounded=0;orthogonalLoop=1;jettySize=auto;html=1;" parent="1" source="8GT5cQAfXwp6U4HI82hQ-17" target="8GT5cQAfXwp6U4HI82hQ-20" edge="1">
          <mxGeometry relative="1" as="geometry" />
        </mxCell>
        <mxCell id="8GT5cQAfXwp6U4HI82hQ-17" value="&lt;div&gt;J &amp;lt;- encabezado&lt;/div&gt;&lt;div&gt;Puntero &amp;lt;- J&lt;/div&gt;&lt;div&gt;SC1CR2 &amp;lt;- $88&lt;br&gt;&lt;/div&gt;" style="rounded=0;whiteSpace=wrap;html=1;" parent="1" vertex="1">
          <mxGeometry x="305" y="160" width="120" height="60" as="geometry" />
        </mxCell>
        <mxCell id="8GT5cQAfXwp6U4HI82hQ-19" value="" style="ellipse;whiteSpace=wrap;html=1;aspect=fixed;" parent="1" vertex="1">
          <mxGeometry x="350" y="236" width="30" height="30" as="geometry" />
        </mxCell>
        <mxCell id="8GT5cQAfXwp6U4HI82hQ-26" value="" style="edgeStyle=orthogonalEdgeStyle;rounded=0;orthogonalLoop=1;jettySize=auto;html=1;" parent="1" source="8GT5cQAfXwp6U4HI82hQ-20" target="8GT5cQAfXwp6U4HI82hQ-22" edge="1">
          <mxGeometry relative="1" as="geometry" />
        </mxCell>
        <mxCell id="8GT5cQAfXwp6U4HI82hQ-29" style="edgeStyle=orthogonalEdgeStyle;rounded=0;orthogonalLoop=1;jettySize=auto;html=1;exitX=1;exitY=0.5;exitDx=0;exitDy=0;entryX=1;entryY=0.5;entryDx=0;entryDy=0;" parent="1" source="8GT5cQAfXwp6U4HI82hQ-20" target="8GT5cQAfXwp6U4HI82hQ-19" edge="1">
          <mxGeometry relative="1" as="geometry" />
        </mxCell>
        <mxCell id="8GT5cQAfXwp6U4HI82hQ-20" value="COMPLETADO = 0" style="shape=hexagon;perimeter=hexagonPerimeter2;whiteSpace=wrap;html=1;fixedSize=1;" parent="1" vertex="1">
          <mxGeometry x="292.5" y="282" width="145" height="30" as="geometry" />
        </mxCell>
        <mxCell id="8GT5cQAfXwp6U4HI82hQ-21" value="&lt;div&gt;COMPLETADO &amp;lt;- 0&lt;br&gt;&lt;/div&gt;" style="rounded=0;whiteSpace=wrap;html=1;" parent="1" vertex="1">
          <mxGeometry x="305" y="332" width="120" height="30" as="geometry" />
        </mxCell>
        <mxCell id="8GT5cQAfXwp6U4HI82hQ-28" value="" style="edgeStyle=orthogonalEdgeStyle;rounded=0;orthogonalLoop=1;jettySize=auto;html=1;" parent="1" source="8GT5cQAfXwp6U4HI82hQ-22" target="8GT5cQAfXwp6U4HI82hQ-24" edge="1">
          <mxGeometry relative="1" as="geometry" />
        </mxCell>
        <mxCell id="8GT5cQAfXwp6U4HI82hQ-36" value="" style="edgeStyle=orthogonalEdgeStyle;rounded=0;orthogonalLoop=1;jettySize=auto;html=1;" parent="1" source="8GT5cQAfXwp6U4HI82hQ-22" edge="1">
          <mxGeometry relative="1" as="geometry">
            <mxPoint x="460" y="402.0000000000002" as="targetPoint" />
          </mxGeometry>
        </mxCell>
        <mxCell id="8GT5cQAfXwp6U4HI82hQ-22" value="estado.0 = 1" style="shape=hexagon;perimeter=hexagonPerimeter2;whiteSpace=wrap;html=1;fixedSize=1;" parent="1" vertex="1">
          <mxGeometry x="292.5" y="387" width="145" height="30" as="geometry" />
        </mxCell>
        <mxCell id="8GT5cQAfXwp6U4HI82hQ-109" style="edgeStyle=orthogonalEdgeStyle;rounded=0;orthogonalLoop=1;jettySize=auto;html=1;" parent="1" source="8GT5cQAfXwp6U4HI82hQ-23" target="8GT5cQAfXwp6U4HI82hQ-107" edge="1">
          <mxGeometry relative="1" as="geometry" />
        </mxCell>
        <mxCell id="8GT5cQAfXwp6U4HI82hQ-23" value="estado.1 = 1" style="shape=hexagon;perimeter=hexagonPerimeter2;whiteSpace=wrap;html=1;fixedSize=1;" parent="1" vertex="1">
          <mxGeometry x="292.5" y="437" width="145" height="30" as="geometry" />
        </mxCell>
        <mxCell id="8GT5cQAfXwp6U4HI82hQ-67" value="" style="edgeStyle=orthogonalEdgeStyle;rounded=0;orthogonalLoop=1;jettySize=auto;html=1;" parent="1" source="8GT5cQAfXwp6U4HI82hQ-24" target="8GT5cQAfXwp6U4HI82hQ-66" edge="1">
          <mxGeometry relative="1" as="geometry" />
        </mxCell>
        <mxCell id="8GT5cQAfXwp6U4HI82hQ-110" style="edgeStyle=orthogonalEdgeStyle;rounded=0;orthogonalLoop=1;jettySize=auto;html=1;entryX=0;entryY=0.5;entryDx=0;entryDy=0;" parent="1" source="8GT5cQAfXwp6U4HI82hQ-24" target="8GT5cQAfXwp6U4HI82hQ-108" edge="1">
          <mxGeometry relative="1" as="geometry" />
        </mxCell>
        <mxCell id="8GT5cQAfXwp6U4HI82hQ-24" value="estado.3 = 1" style="shape=hexagon;perimeter=hexagonPerimeter2;whiteSpace=wrap;html=1;fixedSize=1;" parent="1" vertex="1">
          <mxGeometry x="292.5" y="492" width="145" height="30" as="geometry" />
        </mxCell>
        <mxCell id="8GT5cQAfXwp6U4HI82hQ-30" value="Sí" style="text;html=1;align=center;verticalAlign=middle;resizable=0;points=[];autosize=1;" parent="1" vertex="1">
          <mxGeometry x="415" y="270" width="30" height="20" as="geometry" />
        </mxCell>
        <mxCell id="8GT5cQAfXwp6U4HI82hQ-37" value="Sí" style="text;html=1;align=center;verticalAlign=middle;resizable=0;points=[];autosize=1;" parent="1" vertex="1">
          <mxGeometry x="425" y="370" width="30" height="20" as="geometry" />
        </mxCell>
        <mxCell id="8GT5cQAfXwp6U4HI82hQ-38" value="Sí" style="text;html=1;align=center;verticalAlign=middle;resizable=0;points=[];autosize=1;" parent="1" vertex="1">
          <mxGeometry x="425" y="480" width="30" height="20" as="geometry" />
        </mxCell>
        <mxCell id="8GT5cQAfXwp6U4HI82hQ-39" value="Sí" style="text;html=1;align=center;verticalAlign=middle;resizable=0;points=[];autosize=1;" parent="1" vertex="1">
          <mxGeometry x="425" y="430" width="30" height="20" as="geometry" />
        </mxCell>
        <mxCell id="8GT5cQAfXwp6U4HI82hQ-68" value="" style="edgeStyle=orthogonalEdgeStyle;rounded=0;orthogonalLoop=1;jettySize=auto;html=1;" parent="1" source="8GT5cQAfXwp6U4HI82hQ-65" target="8GT5cQAfXwp6U4HI82hQ-66" edge="1">
          <mxGeometry relative="1" as="geometry" />
        </mxCell>
        <mxCell id="8GT5cQAfXwp6U4HI82hQ-65" value="M" style="ellipse;whiteSpace=wrap;html=1;aspect=fixed;" parent="1" vertex="1">
          <mxGeometry x="430" y="550" width="30" height="30" as="geometry" />
        </mxCell>
        <mxCell id="8GT5cQAfXwp6U4HI82hQ-75" value="" style="edgeStyle=orthogonalEdgeStyle;rounded=0;orthogonalLoop=1;jettySize=auto;html=1;" parent="1" source="8GT5cQAfXwp6U4HI82hQ-76" target="8GT5cQAfXwp6U4HI82hQ-70" edge="1">
          <mxGeometry relative="1" as="geometry" />
        </mxCell>
        <mxCell id="8GT5cQAfXwp6U4HI82hQ-66" value="" style="ellipse;whiteSpace=wrap;html=1;aspect=fixed;" parent="1" vertex="1">
          <mxGeometry x="350" y="550" width="30" height="30" as="geometry" />
        </mxCell>
        <mxCell id="8GT5cQAfXwp6U4HI82hQ-73" value="" style="edgeStyle=orthogonalEdgeStyle;rounded=0;orthogonalLoop=1;jettySize=auto;html=1;" parent="1" source="8GT5cQAfXwp6U4HI82hQ-70" target="8GT5cQAfXwp6U4HI82hQ-72" edge="1">
          <mxGeometry relative="1" as="geometry" />
        </mxCell>
        <mxCell id="8GT5cQAfXwp6U4HI82hQ-78" style="edgeStyle=orthogonalEdgeStyle;rounded=0;orthogonalLoop=1;jettySize=auto;html=1;entryX=0;entryY=0.5;entryDx=0;entryDy=0;" parent="1" source="8GT5cQAfXwp6U4HI82hQ-70" target="8GT5cQAfXwp6U4HI82hQ-76" edge="1">
          <mxGeometry relative="1" as="geometry">
            <Array as="points">
              <mxPoint x="270" y="715" />
              <mxPoint x="270" y="655" />
            </Array>
          </mxGeometry>
        </mxCell>
        <mxCell id="8GT5cQAfXwp6U4HI82hQ-70" value="CONTADOR_DELAY = 0" style="shape=hexagon;perimeter=hexagonPerimeter2;whiteSpace=wrap;html=1;fixedSize=1;" parent="1" vertex="1">
          <mxGeometry x="286" y="700" width="157.5" height="30" as="geometry" />
        </mxCell>
        <mxCell id="8GT5cQAfXwp6U4HI82hQ-72" value="I" style="ellipse;whiteSpace=wrap;html=1;aspect=fixed;" parent="1" vertex="1">
          <mxGeometry x="467.5" y="700" width="30" height="30" as="geometry" />
        </mxCell>
        <mxCell id="8GT5cQAfXwp6U4HI82hQ-74" value="Sí" style="text;html=1;align=center;verticalAlign=middle;resizable=0;points=[];autosize=1;" parent="1" vertex="1">
          <mxGeometry x="432.5" y="690" width="30" height="20" as="geometry" />
        </mxCell>
        <mxCell id="8GT5cQAfXwp6U4HI82hQ-76" value="" style="ellipse;whiteSpace=wrap;html=1;aspect=fixed;" parent="1" vertex="1">
          <mxGeometry x="350" y="640" width="30" height="30" as="geometry" />
        </mxCell>
        <mxCell id="8GT5cQAfXwp6U4HI82hQ-77" value="" style="edgeStyle=orthogonalEdgeStyle;rounded=0;orthogonalLoop=1;jettySize=auto;html=1;" parent="1" source="8GT5cQAfXwp6U4HI82hQ-66" target="8GT5cQAfXwp6U4HI82hQ-76" edge="1">
          <mxGeometry relative="1" as="geometry">
            <mxPoint x="365" y="580" as="sourcePoint" />
            <mxPoint x="363.72413793103453" y="700" as="targetPoint" />
          </mxGeometry>
        </mxCell>
        <mxCell id="8GT5cQAfXwp6U4HI82hQ-69" value="CONTADOR_DELAY &amp;lt;-100" style="rounded=0;whiteSpace=wrap;html=1;" parent="1" vertex="1">
          <mxGeometry x="285" y="595" width="160" height="25" as="geometry" />
        </mxCell>
        <mxCell id="8GT5cQAfXwp6U4HI82hQ-113" value="" style="edgeStyle=orthogonalEdgeStyle;rounded=0;orthogonalLoop=1;jettySize=auto;html=1;" parent="1" source="8GT5cQAfXwp6U4HI82hQ-81" target="8GT5cQAfXwp6U4HI82hQ-88" edge="1">
          <mxGeometry relative="1" as="geometry" />
        </mxCell>
        <mxCell id="8GT5cQAfXwp6U4HI82hQ-81" value="&lt;div&gt;R1 &amp;lt;- P15&lt;/div&gt;" style="rounded=0;whiteSpace=wrap;html=1;" parent="1" vertex="1">
          <mxGeometry x="660" y="164.5" width="120" height="25" as="geometry" />
        </mxCell>
        <mxCell id="8GT5cQAfXwp6U4HI82hQ-82" value="" style="edgeStyle=orthogonalEdgeStyle;rounded=0;orthogonalLoop=1;jettySize=auto;html=1;" parent="1" source="8GT5cQAfXwp6U4HI82hQ-84" target="8GT5cQAfXwp6U4HI82hQ-85" edge="1">
          <mxGeometry relative="1" as="geometry" />
        </mxCell>
        <mxCell id="8GT5cQAfXwp6U4HI82hQ-83" value="" style="edgeStyle=orthogonalEdgeStyle;rounded=0;orthogonalLoop=1;jettySize=auto;html=1;" parent="1" source="8GT5cQAfXwp6U4HI82hQ-84" target="8GT5cQAfXwp6U4HI82hQ-88" edge="1">
          <mxGeometry relative="1" as="geometry" />
        </mxCell>
        <mxCell id="8GT5cQAfXwp6U4HI82hQ-84" value="R1 &amp;lt; VOLUMEN" style="shape=hexagon;perimeter=hexagonPerimeter2;whiteSpace=wrap;html=1;fixedSize=1;" parent="1" vertex="1">
          <mxGeometry x="647.5" y="210" width="145" height="30" as="geometry" />
        </mxCell>
        <mxCell id="8GT5cQAfXwp6U4HI82hQ-85" value="V2" style="ellipse;whiteSpace=wrap;html=1;aspect=fixed;" parent="1" vertex="1">
          <mxGeometry x="820" y="210" width="30" height="30" as="geometry" />
        </mxCell>
        <mxCell id="8GT5cQAfXwp6U4HI82hQ-86" value="Sí" style="text;html=1;align=center;verticalAlign=middle;resizable=0;points=[];autosize=1;" parent="1" vertex="1">
          <mxGeometry x="732.5" y="243" width="30" height="20" as="geometry" />
        </mxCell>
        <mxCell id="8GT5cQAfXwp6U4HI82hQ-87" value="" style="edgeStyle=orthogonalEdgeStyle;rounded=0;orthogonalLoop=1;jettySize=auto;html=1;" parent="1" source="8GT5cQAfXwp6U4HI82hQ-88" target="8GT5cQAfXwp6U4HI82hQ-91" edge="1">
          <mxGeometry relative="1" as="geometry" />
        </mxCell>
        <mxCell id="8GT5cQAfXwp6U4HI82hQ-117" value="" style="edgeStyle=orthogonalEdgeStyle;rounded=0;orthogonalLoop=1;jettySize=auto;html=1;" parent="1" source="8GT5cQAfXwp6U4HI82hQ-88" target="8GT5cQAfXwp6U4HI82hQ-114" edge="1">
          <mxGeometry relative="1" as="geometry" />
        </mxCell>
        <mxCell id="8GT5cQAfXwp6U4HI82hQ-88" value="&lt;div&gt;estado &amp;lt;- 2&lt;/div&gt;" style="rounded=0;whiteSpace=wrap;html=1;" parent="1" vertex="1">
          <mxGeometry x="660" y="271" width="120" height="28" as="geometry" />
        </mxCell>
        <mxCell id="8GT5cQAfXwp6U4HI82hQ-89" value="" style="edgeStyle=orthogonalEdgeStyle;rounded=0;orthogonalLoop=1;jettySize=auto;html=1;" parent="1" source="8GT5cQAfXwp6U4HI82hQ-91" target="8GT5cQAfXwp6U4HI82hQ-93" edge="1">
          <mxGeometry relative="1" as="geometry" />
        </mxCell>
        <mxCell id="8GT5cQAfXwp6U4HI82hQ-90" value="" style="edgeStyle=orthogonalEdgeStyle;rounded=0;orthogonalLoop=1;jettySize=auto;html=1;entryX=1;entryY=0.5;entryDx=0;entryDy=0;" parent="1" source="8GT5cQAfXwp6U4HI82hQ-91" target="8GT5cQAfXwp6U4HI82hQ-96" edge="1">
          <mxGeometry relative="1" as="geometry">
            <mxPoint x="817.5" y="397.0999999999999" as="targetPoint" />
            <Array as="points">
              <mxPoint x="820" y="397" />
              <mxPoint x="820" y="547" />
            </Array>
          </mxGeometry>
        </mxCell>
        <mxCell id="8GT5cQAfXwp6U4HI82hQ-91" value="R1 &amp;gt; VOLUMEN" style="shape=hexagon;perimeter=hexagonPerimeter2;whiteSpace=wrap;html=1;fixedSize=1;" parent="1" vertex="1">
          <mxGeometry x="647.5" y="382" width="145" height="30" as="geometry" />
        </mxCell>
        <mxCell id="8GT5cQAfXwp6U4HI82hQ-92" value="&lt;div&gt;estado &amp;lt;- 8&lt;br&gt;&lt;/div&gt;" style="rounded=0;whiteSpace=wrap;html=1;" parent="1" vertex="1">
          <mxGeometry x="660" y="426.5" width="120" height="30.5" as="geometry" />
        </mxCell>
        <mxCell id="8GT5cQAfXwp6U4HI82hQ-93" value="L" style="ellipse;whiteSpace=wrap;html=1;aspect=fixed;" parent="1" vertex="1">
          <mxGeometry x="705" y="475" width="30" height="30" as="geometry" />
        </mxCell>
        <mxCell id="8GT5cQAfXwp6U4HI82hQ-95" value="" style="edgeStyle=orthogonalEdgeStyle;rounded=0;orthogonalLoop=1;jettySize=auto;html=1;" parent="1" source="8GT5cQAfXwp6U4HI82hQ-96" target="8GT5cQAfXwp6U4HI82hQ-99" edge="1">
          <mxGeometry relative="1" as="geometry" />
        </mxCell>
        <mxCell id="8GT5cQAfXwp6U4HI82hQ-96" value="&lt;div&gt;J &amp;lt;- Alarma&lt;br&gt;&lt;/div&gt;&lt;div&gt;Puntero &amp;lt;- J&lt;/div&gt;&lt;div&gt;SC1CR2 &amp;lt;- $C2&lt;br&gt;&lt;/div&gt;" style="rounded=0;whiteSpace=wrap;html=1;" parent="1" vertex="1">
          <mxGeometry x="660" y="522.87" width="120" height="48.25" as="geometry" />
        </mxCell>
        <mxCell id="8GT5cQAfXwp6U4HI82hQ-97" style="edgeStyle=orthogonalEdgeStyle;rounded=0;orthogonalLoop=1;jettySize=auto;html=1;entryX=1;entryY=0.5;entryDx=0;entryDy=0;" parent="1" source="8GT5cQAfXwp6U4HI82hQ-99" target="8GT5cQAfXwp6U4HI82hQ-100" edge="1">
          <mxGeometry relative="1" as="geometry">
            <Array as="points">
              <mxPoint x="810" y="645" />
              <mxPoint x="810" y="600" />
            </Array>
          </mxGeometry>
        </mxCell>
        <mxCell id="8GT5cQAfXwp6U4HI82hQ-98" value="" style="edgeStyle=orthogonalEdgeStyle;rounded=0;orthogonalLoop=1;jettySize=auto;html=1;" parent="1" source="8GT5cQAfXwp6U4HI82hQ-99" target="8GT5cQAfXwp6U4HI82hQ-103" edge="1">
          <mxGeometry relative="1" as="geometry" />
        </mxCell>
        <mxCell id="8GT5cQAfXwp6U4HI82hQ-99" value="COMPLETADO = 0" style="shape=hexagon;perimeter=hexagonPerimeter2;whiteSpace=wrap;html=1;fixedSize=1;" parent="1" vertex="1">
          <mxGeometry x="647.5" y="630" width="145" height="30" as="geometry" />
        </mxCell>
        <mxCell id="8GT5cQAfXwp6U4HI82hQ-100" value="" style="ellipse;whiteSpace=wrap;html=1;aspect=fixed;" parent="1" vertex="1">
          <mxGeometry x="705" y="585" width="30" height="30" as="geometry" />
        </mxCell>
        <mxCell id="8GT5cQAfXwp6U4HI82hQ-101" value="Sí" style="text;html=1;align=center;verticalAlign=middle;resizable=0;points=[];autosize=1;" parent="1" vertex="1">
          <mxGeometry x="775" y="615" width="30" height="20" as="geometry" />
        </mxCell>
        <mxCell id="8GT5cQAfXwp6U4HI82hQ-102" value="" style="edgeStyle=orthogonalEdgeStyle;rounded=0;orthogonalLoop=1;jettySize=auto;html=1;" parent="1" source="8GT5cQAfXwp6U4HI82hQ-103" target="8GT5cQAfXwp6U4HI82hQ-104" edge="1">
          <mxGeometry relative="1" as="geometry" />
        </mxCell>
        <mxCell id="8GT5cQAfXwp6U4HI82hQ-103" value="COMPLETADO &amp;lt;- 0" style="rounded=0;whiteSpace=wrap;html=1;" parent="1" vertex="1">
          <mxGeometry x="660" y="680" width="120" height="30.5" as="geometry" />
        </mxCell>
        <mxCell id="8GT5cQAfXwp6U4HI82hQ-104" value="M" style="ellipse;whiteSpace=wrap;html=1;aspect=fixed;" parent="1" vertex="1">
          <mxGeometry x="705" y="734.9999999999999" width="30" height="30" as="geometry" />
        </mxCell>
        <mxCell id="8GT5cQAfXwp6U4HI82hQ-105" value="Sí" style="text;html=1;align=center;verticalAlign=middle;resizable=0;points=[];autosize=1;" parent="1" vertex="1">
          <mxGeometry x="782.5" y="365" width="30" height="20" as="geometry" />
        </mxCell>
        <mxCell id="8GT5cQAfXwp6U4HI82hQ-106" value="V" style="ellipse;whiteSpace=wrap;html=1;aspect=fixed;" parent="1" vertex="1">
          <mxGeometry x="462" y="387" width="30" height="30" as="geometry" />
        </mxCell>
        <mxCell id="8GT5cQAfXwp6U4HI82hQ-107" value="A" style="ellipse;whiteSpace=wrap;html=1;aspect=fixed;" parent="1" vertex="1">
          <mxGeometry x="462.5" y="437" width="30" height="30" as="geometry" />
        </mxCell>
        <mxCell id="8GT5cQAfXwp6U4HI82hQ-108" value="L" style="ellipse;whiteSpace=wrap;html=1;aspect=fixed;" parent="1" vertex="1">
          <mxGeometry x="463.5" y="492" width="30" height="30" as="geometry" />
        </mxCell>
        <mxCell id="8GT5cQAfXwp6U4HI82hQ-112" style="edgeStyle=orthogonalEdgeStyle;rounded=0;orthogonalLoop=1;jettySize=auto;html=1;entryX=0.5;entryY=0;entryDx=0;entryDy=0;" parent="1" source="8GT5cQAfXwp6U4HI82hQ-111" target="8GT5cQAfXwp6U4HI82hQ-81" edge="1">
          <mxGeometry relative="1" as="geometry" />
        </mxCell>
        <mxCell id="8GT5cQAfXwp6U4HI82hQ-111" value="V" style="ellipse;whiteSpace=wrap;html=1;aspect=fixed;" parent="1" vertex="1">
          <mxGeometry x="705" y="115" width="30" height="30" as="geometry" />
        </mxCell>
        <mxCell id="8GT5cQAfXwp6U4HI82hQ-114" value="&lt;div&gt;R1 &amp;lt;- P30&lt;/div&gt;" style="rounded=0;whiteSpace=wrap;html=1;" parent="1" vertex="1">
          <mxGeometry x="660" y="324" width="120" height="30.5" as="geometry" />
        </mxCell>
        <mxCell id="8GT5cQAfXwp6U4HI82hQ-116" value="" style="edgeStyle=orthogonalEdgeStyle;rounded=0;orthogonalLoop=1;jettySize=auto;html=1;" parent="1" source="8GT5cQAfXwp6U4HI82hQ-115" target="8GT5cQAfXwp6U4HI82hQ-114" edge="1">
          <mxGeometry relative="1" as="geometry" />
        </mxCell>
        <mxCell id="8GT5cQAfXwp6U4HI82hQ-115" value="A" style="ellipse;whiteSpace=wrap;html=1;aspect=fixed;" parent="1" vertex="1">
          <mxGeometry x="600" y="324.5" width="30" height="30" as="geometry" />
        </mxCell>
        <mxCell id="8GT5cQAfXwp6U4HI82hQ-120" value="L" style="ellipse;whiteSpace=wrap;html=1;aspect=fixed;" parent="1" vertex="1">
          <mxGeometry x="950" y="115" width="30" height="30" as="geometry" />
        </mxCell>
        <mxCell id="8GT5cQAfXwp6U4HI82hQ-121" value="" style="edgeStyle=orthogonalEdgeStyle;rounded=0;orthogonalLoop=1;jettySize=auto;html=1;" parent="1" source="8GT5cQAfXwp6U4HI82hQ-122" target="8GT5cQAfXwp6U4HI82hQ-128" edge="1">
          <mxGeometry relative="1" as="geometry" />
        </mxCell>
        <mxCell id="8GT5cQAfXwp6U4HI82hQ-122" value="&lt;div&gt;R1 &amp;lt;- P90&lt;/div&gt;" style="rounded=0;whiteSpace=wrap;html=1;" parent="1" vertex="1">
          <mxGeometry x="902.5" y="162.5" width="120" height="25" as="geometry" />
        </mxCell>
        <mxCell id="8GT5cQAfXwp6U4HI82hQ-123" value="" style="edgeStyle=orthogonalEdgeStyle;rounded=0;orthogonalLoop=1;jettySize=auto;html=1;" parent="1" source="8GT5cQAfXwp6U4HI82hQ-125" target="8GT5cQAfXwp6U4HI82hQ-126" edge="1">
          <mxGeometry relative="1" as="geometry" />
        </mxCell>
        <mxCell id="8GT5cQAfXwp6U4HI82hQ-124" value="" style="edgeStyle=orthogonalEdgeStyle;rounded=0;orthogonalLoop=1;jettySize=auto;html=1;" parent="1" source="8GT5cQAfXwp6U4HI82hQ-125" target="8GT5cQAfXwp6U4HI82hQ-128" edge="1">
          <mxGeometry relative="1" as="geometry" />
        </mxCell>
        <mxCell id="8GT5cQAfXwp6U4HI82hQ-125" value="R1 &amp;lt; VOLUMEN" style="shape=hexagon;perimeter=hexagonPerimeter2;whiteSpace=wrap;html=1;fixedSize=1;" parent="1" vertex="1">
          <mxGeometry x="890" y="208" width="145" height="30" as="geometry" />
        </mxCell>
        <mxCell id="8GT5cQAfXwp6U4HI82hQ-126" value="M" style="ellipse;whiteSpace=wrap;html=1;aspect=fixed;" parent="1" vertex="1">
          <mxGeometry x="1062.5" y="208" width="30" height="30" as="geometry" />
        </mxCell>
        <mxCell id="8GT5cQAfXwp6U4HI82hQ-127" value="Sí" style="text;html=1;align=center;verticalAlign=middle;resizable=0;points=[];autosize=1;" parent="1" vertex="1">
          <mxGeometry x="1032.5" y="201" width="30" height="20" as="geometry" />
        </mxCell>
        <mxCell id="8GT5cQAfXwp6U4HI82hQ-131" style="edgeStyle=orthogonalEdgeStyle;rounded=0;orthogonalLoop=1;jettySize=auto;html=1;exitX=0.5;exitY=1;exitDx=0;exitDy=0;entryX=0.5;entryY=0;entryDx=0;entryDy=0;" parent="1" source="8GT5cQAfXwp6U4HI82hQ-128" target="8GT5cQAfXwp6U4HI82hQ-130" edge="1">
          <mxGeometry relative="1" as="geometry" />
        </mxCell>
        <mxCell id="8GT5cQAfXwp6U4HI82hQ-128" value="&lt;div&gt;estado &amp;lt;- 1&lt;br&gt;&lt;/div&gt;" style="rounded=0;whiteSpace=wrap;html=1;" parent="1" vertex="1">
          <mxGeometry x="902.5" y="269" width="120" height="28" as="geometry" />
        </mxCell>
        <mxCell id="8GT5cQAfXwp6U4HI82hQ-129" style="edgeStyle=orthogonalEdgeStyle;rounded=0;orthogonalLoop=1;jettySize=auto;html=1;entryX=0.5;entryY=0;entryDx=0;entryDy=0;" parent="1" target="8GT5cQAfXwp6U4HI82hQ-122" edge="1">
          <mxGeometry relative="1" as="geometry">
            <mxPoint x="962.5" y="143" as="sourcePoint" />
          </mxGeometry>
        </mxCell>
        <mxCell id="8GT5cQAfXwp6U4HI82hQ-130" value="V" style="ellipse;whiteSpace=wrap;html=1;aspect=fixed;" parent="1" vertex="1">
          <mxGeometry x="947.5" y="322" width="30" height="30" as="geometry" />
        </mxCell>
        <mxCell id="8GT5cQAfXwp6U4HI82hQ-133" value="" style="edgeStyle=orthogonalEdgeStyle;rounded=0;orthogonalLoop=1;jettySize=auto;html=1;" parent="1" source="8GT5cQAfXwp6U4HI82hQ-134" target="8GT5cQAfXwp6U4HI82hQ-137" edge="1">
          <mxGeometry relative="1" as="geometry" />
        </mxCell>
        <mxCell id="8GT5cQAfXwp6U4HI82hQ-134" value="&lt;div&gt;J &amp;lt;- Vaciado&lt;br&gt;&lt;/div&gt;&lt;div&gt;Puntero &amp;lt;- J&lt;/div&gt;&lt;div&gt;SC1CR2 &amp;lt;- $88&lt;br&gt;&lt;/div&gt;" style="rounded=0;whiteSpace=wrap;html=1;" parent="1" vertex="1">
          <mxGeometry x="902.5" y="424.87" width="120" height="48.25" as="geometry" />
        </mxCell>
        <mxCell id="8GT5cQAfXwp6U4HI82hQ-135" style="edgeStyle=orthogonalEdgeStyle;rounded=0;orthogonalLoop=1;jettySize=auto;html=1;entryX=1;entryY=0.5;entryDx=0;entryDy=0;" parent="1" source="8GT5cQAfXwp6U4HI82hQ-137" target="8GT5cQAfXwp6U4HI82hQ-138" edge="1">
          <mxGeometry relative="1" as="geometry">
            <Array as="points">
              <mxPoint x="1052.5" y="547" />
              <mxPoint x="1052.5" y="502" />
            </Array>
          </mxGeometry>
        </mxCell>
        <mxCell id="8GT5cQAfXwp6U4HI82hQ-136" value="" style="edgeStyle=orthogonalEdgeStyle;rounded=0;orthogonalLoop=1;jettySize=auto;html=1;" parent="1" source="8GT5cQAfXwp6U4HI82hQ-137" target="8GT5cQAfXwp6U4HI82hQ-141" edge="1">
          <mxGeometry relative="1" as="geometry" />
        </mxCell>
        <mxCell id="8GT5cQAfXwp6U4HI82hQ-137" value="COMPLETADO = 0" style="shape=hexagon;perimeter=hexagonPerimeter2;whiteSpace=wrap;html=1;fixedSize=1;" parent="1" vertex="1">
          <mxGeometry x="890" y="532" width="145" height="30" as="geometry" />
        </mxCell>
        <mxCell id="8GT5cQAfXwp6U4HI82hQ-138" value="" style="ellipse;whiteSpace=wrap;html=1;aspect=fixed;" parent="1" vertex="1">
          <mxGeometry x="947.5" y="487" width="30" height="30" as="geometry" />
        </mxCell>
        <mxCell id="8GT5cQAfXwp6U4HI82hQ-139" value="Sí" style="text;html=1;align=center;verticalAlign=middle;resizable=0;points=[];autosize=1;" parent="1" vertex="1">
          <mxGeometry x="1017.5" y="517" width="30" height="20" as="geometry" />
        </mxCell>
        <mxCell id="8GT5cQAfXwp6U4HI82hQ-140" value="" style="edgeStyle=orthogonalEdgeStyle;rounded=0;orthogonalLoop=1;jettySize=auto;html=1;" parent="1" source="8GT5cQAfXwp6U4HI82hQ-141" target="8GT5cQAfXwp6U4HI82hQ-142" edge="1">
          <mxGeometry relative="1" as="geometry" />
        </mxCell>
        <mxCell id="8GT5cQAfXwp6U4HI82hQ-141" value="COMPLETADO &amp;lt;- 0" style="rounded=0;whiteSpace=wrap;html=1;" parent="1" vertex="1">
          <mxGeometry x="902.5" y="582" width="120" height="30.5" as="geometry" />
        </mxCell>
        <mxCell id="8GT5cQAfXwp6U4HI82hQ-142" value="M" style="ellipse;whiteSpace=wrap;html=1;aspect=fixed;" parent="1" vertex="1">
          <mxGeometry x="947.5" y="636.9999999999999" width="30" height="30" as="geometry" />
        </mxCell>
        <mxCell id="8GT5cQAfXwp6U4HI82hQ-144" style="edgeStyle=orthogonalEdgeStyle;rounded=0;orthogonalLoop=1;jettySize=auto;html=1;exitX=0.5;exitY=1;exitDx=0;exitDy=0;entryX=0.5;entryY=0;entryDx=0;entryDy=0;" parent="1" source="8GT5cQAfXwp6U4HI82hQ-143" target="8GT5cQAfXwp6U4HI82hQ-134" edge="1">
          <mxGeometry relative="1" as="geometry" />
        </mxCell>
        <mxCell id="8GT5cQAfXwp6U4HI82hQ-143" value="V2" style="ellipse;whiteSpace=wrap;html=1;aspect=fixed;" parent="1" vertex="1">
          <mxGeometry x="947.5" y="377" width="30" height="30" as="geometry" />
        </mxCell>
      </root>
    </mxGraphModel>
  </diagram>
</mxfile>
